<?xml version="1.0" encoding="UTF-8"?>
<svg version="1.1" xmlns="http://www.w3.org/2000/svg" width="364" height="364">
<path d="M0 0 C0.86625 0.598125 1.7325 1.19625 2.625 1.8125 C13.63588884 11.95410814 18.40727696 26.90384548 22 41 C22.20753906 40.07960937 22.41507813 39.15921875 22.62890625 38.2109375 C27.2884649 19.06580532 36.23254237 4.2749997 53.2265625 -6.3984375 C70.85536997 -16.12670918 94.00277056 -16.90170672 113.22875977 -11.90722656 C132.48466853 -6.23240117 149.07510053 6.31033079 159.2109375 23.59375 C169.17237082 42.55962305 171.02712332 63.59319236 165.1875 84.19140625 C157.75641105 108.0246685 144.50838749 130.15030931 126.4765625 147.5234375 C124.840442 149.09766332 124.840442 149.09766332 123.0625 151.5 C120.07876513 155.11664833 116.56551952 157.96847404 113 161 C111.98724061 161.88553001 110.97559679 162.77233687 109.96484375 163.66015625 C102.97464637 169.769521 95.79818846 175.54750509 88.38891602 181.14086914 C83.68426571 184.69494003 79.07352727 188.34182934 74.5 192.0625 C67.30355142 197.88305865 59.79664248 203.19853365 52.19238281 208.46923828 C49.93608306 210.04462797 47.69680249 211.64185342 45.4609375 213.24609375 C44.71376465 213.78041016 43.9665918 214.31472656 43.19677734 214.86523438 C41.78591817 215.87500689 40.37719686 216.88777692 38.97119141 217.90429688 C26.30338637 226.92897046 26.30338637 226.92897046 20.453125 227.109375 C16.10030834 225.71095879 12.58355755 223.71029847 8.75 221.25 C7.97350098 220.76265381 7.19700195 220.27530762 6.39697266 219.77319336 C-22.46522723 201.49495713 -54.20409541 180.28075866 -76.33984375 153.90625 C-78.05035194 151.94218413 -79.86555433 150.17188557 -81.75 148.375 C-103.45750268 126.8770292 -123.8569574 94.31594014 -124.38061523 63.11108398 C-124.33551294 41.13450302 -118.23390862 23.81130429 -102.76171875 7.6640625 C-76.17986833 -17.83015083 -29.06899958 -24.79591683 0 0 Z M124.265625 13.10546875 C123.62816345 13.42655106 122.9907019 13.74763336 122.33392334 14.07844543 C120.30107888 15.10550229 118.27569423 16.14642441 116.25 17.1875 C114.90409011 17.86871703 113.55773954 18.54906413 112.2109375 19.22851562 C105.39599697 22.67897939 98.63258222 26.2078539 92 30 C95.9970192 31.33233973 97.19223168 30.27217896 100.9609375 28.5 C102.15589844 27.94183594 103.35085938 27.38367188 104.58203125 26.80859375 C105.51909912 26.36169189 105.51909912 26.36169189 106.47509766 25.90576172 C108.3290106 25.02192504 110.18897145 24.15221205 112.05078125 23.28515625 C120.19194433 19.46799454 128.12695957 15.34329122 136 11 C136 10.67 136 10.34 136 10 C131.32232905 9.56332217 128.4031408 11.00176754 124.265625 13.10546875 Z M-14.4375 10.9609375 C-16.02691406 11.29738281 -16.02691406 11.29738281 -17.6484375 11.640625 C-18.75445312 11.88296875 -19.86046875 12.1253125 -21 12.375 C-22.10601562 12.60960937 -23.21203125 12.84421875 -24.3515625 13.0859375 C-30.23343888 14.32707295 -30.23343888 14.32707295 -36 16 C-36.0515625 16.763125 -36.103125 17.52625 -36.15625 18.3125 C-37 21 -37 21 -39.40625 22.625 C-40.93765625 23.305625 -40.93765625 23.305625 -42.5 24 C-43.57765625 24.49757813 -44.6553125 24.99515625 -45.765625 25.5078125 C-46.83296875 26.00023438 -47.9003125 26.49265625 -49 27 C-52.02928407 28.61618228 -55.01810342 30.29821054 -58 32 C-53.93396374 33.35534542 -51.7194232 31.80305606 -48.05078125 30.0625 C-47.36050339 29.74474609 -46.67022552 29.42699219 -45.95903015 29.09960938 C-43.73915855 28.07553552 -41.52576118 27.03827243 -39.3125 26 C-37.15333777 24.99726302 -34.99289669 23.99732534 -32.83224487 22.99780273 C-31.39562746 22.33307518 -29.95952964 21.66722352 -28.5239563 21.00024414 C-21.06896762 17.54519248 -13.54171197 14.26045472 -6 11 C-9.46459989 9.84513337 -10.9104299 10.20388212 -14.4375 10.9609375 Z M-2.125 17 C-2.74375 17.66 -3.3625 18.32 -4 19 C-0.535 18.505 -0.535 18.505 3 18 C2.67 17.01 2.34 16.02 2 15 C-0.24362573 14.7715451 -0.24362573 14.7715451 -2.125 17 Z M60.66796875 15.328125 C59.62189453 15.63363281 58.57582031 15.93914062 57.49804688 16.25390625 C55.85932617 16.74697266 55.85932617 16.74697266 54.1875 17.25 C53.10662109 17.56324219 52.02574219 17.87648437 50.91210938 18.19921875 C45.67664355 19.74832528 40.76064233 21.30811847 36 24 C36 24.99 36 25.98 36 27 C40.1143381 26.3227011 43.74251954 25.03379361 47.61328125 23.49609375 C48.22769577 23.2533522 48.84211029 23.01061066 49.47514343 22.76051331 C51.42251559 21.9901095 53.36751397 21.21390549 55.3125 20.4375 C56.63851895 19.91172353 57.96468936 19.38632887 59.29101562 18.86132812 C62.52910808 17.5786321 65.76509885 16.29072651 69 15 C65.43027382 13.81009127 64.22437484 14.28387673 60.66796875 15.328125 Z M134.89453125 17.9296875 C133.28892334 18.62916504 133.28892334 18.62916504 131.65087891 19.34277344 C124.6204896 22.51235987 117.65244884 25.81479153 110.6875 29.125 C108.41542557 30.20283784 106.14296605 31.27984683 103.86982727 32.35543823 C102.46891537 33.01850613 101.06862982 33.68289974 99.66911316 34.34890747 C95.48457742 36.33187029 91.26640366 38.19958801 87 40 C90.40833679 41.13611226 91.66377414 40.83538772 95.1105957 40.05957031 C96.15210281 39.82892883 97.19360992 39.59828735 98.26667786 39.36065674 C99.39168198 39.10242126 100.5166861 38.84418579 101.67578125 38.578125 C102.83369675 38.31747253 103.99161224 38.05682007 105.18461609 37.78826904 C107.63755822 37.23386442 110.08959052 36.67542132 112.54077148 36.11328125 C116.28438438 35.25643516 120.0314865 34.41639586 123.77929688 33.578125 C126.16168809 33.03746974 128.54385723 32.4958348 130.92578125 31.953125 C132.04471268 31.70298645 133.1636441 31.4528479 134.31648254 31.19512939 C139.60078988 29.97205334 144.30545058 28.7502699 149 26 C148.07265428 24.51444617 147.13275187 23.03672494 146.1875 21.5625 C145.40439453 20.32693359 145.40439453 20.32693359 144.60546875 19.06640625 C141.47670928 15.03936548 139.05466029 16.11569253 134.89453125 17.9296875 Z M89.47265625 22.32421875 C88.49325325 22.71062782 88.49325325 22.71062782 87.49406433 23.10484314 C85.34614227 23.9558893 83.20427863 24.82112059 81.0625 25.6875 C79.57989493 26.28014134 78.0971461 26.87242314 76.61425781 27.46435547 C66.77935949 31.40597307 56.99605475 35.46889021 47.25 39.625 C46.08605713 40.12088623 44.92211426 40.61677246 43.72290039 41.12768555 C42.64387451 41.59343994 41.56484863 42.05919434 40.453125 42.5390625 C39.51629883 42.94334473 38.57947266 43.34762695 37.61425781 43.76416016 C34.94113143 45.02782898 32.44479108 46.33420273 30 48 C30 48.66 30 49.32 30 50 C38.32165631 48.15748544 45.99693174 45.63427101 53.8125 42.25 C54.89966309 41.78553467 55.98682617 41.32106934 57.10693359 40.8425293 C71.28834985 34.69645008 85.14667253 27.84604031 99 21 C94.96140077 19.65380026 93.40229834 20.75880788 89.47265625 22.32421875 Z M-0.16015625 33.4921875 C-0.86705093 33.76513641 -1.57394562 34.03808533 -2.30226135 34.31930542 C-10.10858577 37.36883365 -17.77794905 40.72743489 -25.4375 44.125 C-26.8299031 44.73867853 -28.222481 45.35196058 -29.61523438 45.96484375 C-36.41719013 48.96067285 -43.20998969 51.97720471 -50 55 C-46.08307916 56.30564028 -43.55739164 55.17008796 -39.7890625 53.9375 C-39.07232361 53.71061493 -38.35558472 53.48372986 -37.61712646 53.24996948 C-35.28353637 52.5086874 -32.95428358 51.75469432 -30.625 51 C-29.03225401 50.49045324 -27.43931724 49.98150245 -25.84619141 49.47314453 C-21.22647201 47.99532298 -16.6126137 46.49982804 -12 45 C-10.78248047 44.60522461 -9.56496094 44.21044922 -8.31054688 43.80371094 C-5.32975912 42.83419679 -2.35136444 41.85799976 0.625 40.875 C1.4814209 40.59269531 2.3378418 40.31039062 3.22021484 40.01953125 C6.8949739 39.01856867 6.8949739 39.01856867 10 37 C10.04063832 35.33382885 10.042721 33.66611905 10 32 C5.99873037 30.66624346 3.58329518 32.00972159 -0.16015625 33.4921875 Z M121.25 52.8125 C119.75489115 53.43351755 118.25960964 54.05411957 116.76416016 54.67431641 C112.50633999 56.44215986 108.2525349 58.21948666 104 60 C102.8749707 60.47066895 101.74994141 60.94133789 100.59082031 61.42626953 C95.3886223 63.60520504 90.1911188 65.79480178 85 68 C88.70683731 69.23561244 90.78911322 68.70614103 94.6328125 68.03125 C95.29376923 67.91561707 95.95472595 67.79998413 96.63571167 67.68084717 C98.80071864 67.29711915 100.96291344 66.8998363 103.125 66.5 C103.86153809 66.36605835 104.59807617 66.2321167 105.35693359 66.09411621 C118.29516274 63.72632194 130.8603609 60.51827501 143.45532227 56.71826172 C146.66406516 55.81256071 149.89602186 55.11858523 153.16772461 54.48193359 C155.57742214 53.84812374 157.21060844 52.71159193 159 51 C158.5359375 49.081875 158.5359375 49.081875 158.0625 47.125 C157.80146484 46.04605469 157.80146484 46.04605469 157.53515625 44.9453125 C157.05153008 42.9414343 157.05153008 42.9414343 156 41 C144.69752021 41 131.5905982 48.48652444 121.25 52.8125 Z M-108.6875 48.3125 C-109.66074219 48.57675781 -110.63398437 48.84101563 -111.63671875 49.11328125 C-114.16078602 49.75464008 -114.16078602 49.75464008 -115 52 C-109.53135543 50.98408579 -104.23609987 49.92908943 -99 48 C-102.61233001 46.72152691 -105.04606751 47.28667589 -108.6875 48.3125 Z M94.97485352 50.29174805 C93.11129967 50.75299324 93.11129967 50.75299324 91.21009827 51.22355652 C89.84962258 51.56930244 88.48922727 51.91536478 87.12890625 52.26171875 C85.72719195 52.61287374 84.32532885 52.9634353 82.92332458 53.31343079 C79.97726903 54.05075018 77.03269558 54.79364834 74.08911133 55.54077148 C70.34951725 56.489711 66.60723791 57.42746634 62.86383152 58.36123943 C59.96206452 59.08597449 57.06153345 59.81555785 54.16135979 60.5466404 C52.78440517 60.89340296 51.40716079 61.23901731 50.02960396 61.58337975 C41.55116564 63.70740168 33.2466528 66.09941754 25 69 C25.33 69.66 25.66 70.32 26 71 C26.81678223 70.76289307 27.63356445 70.52578613 28.47509766 70.28149414 C31.52705807 69.39727929 34.57987869 68.51611572 37.63330078 67.63696289 C38.95070691 67.25698537 40.26777089 66.87581935 41.58447266 66.4934082 C43.48508158 65.94164172 45.38706148 65.39460473 47.2890625 64.84765625 C48.43068848 64.51773682 49.57231445 64.18781738 50.74853516 63.84790039 C55.1389723 62.70298462 59.45392726 61.85605803 64 61.875 C64.928125 61.87113281 64.928125 61.87113281 65.875 61.8671875 C68 62 68 62 70.68603516 62.67993164 C74.78015108 63.07534832 77.51948543 61.93429489 81.1484375 60.25390625 C81.80582916 59.96394272 82.46322083 59.67397919 83.14053345 59.37522888 C85.22532529 58.45177247 87.29994789 57.50760898 89.375 56.5625 C90.79234787 55.93024692 92.21031144 55.29937219 93.62890625 54.66992188 C97.09326831 53.12914549 100.54866976 51.56973725 104 50 C100.31642958 48.77214319 98.71934465 49.35264819 94.97485352 50.29174805 Z M-71.21435547 52.84863281 C-72.03555878 53.05925354 -72.85676208 53.26987427 -73.70285034 53.48687744 C-74.5820816 53.72323914 -75.46131287 53.95960083 -76.3671875 54.203125 C-77.27953156 54.44158142 -78.19187561 54.68003784 -79.13186646 54.92572021 C-81.06129422 55.43236533 -82.989486 55.9437375 -84.91650391 56.45947266 C-87.85400599 57.24439028 -90.79562936 58.01198813 -93.73828125 58.77734375 C-95.61485536 59.2724075 -97.49116659 59.76846902 -99.3671875 60.265625 C-100.2423703 60.49388977 -101.1175531 60.72215454 -102.01925659 60.95733643 C-106.65290857 62.20731549 -110.77231473 63.65673807 -115 66 C-115 66.99 -115 67.98 -115 69 C-108.08716403 68.48237958 -102.21793678 66.96993037 -95.71484375 64.62109375 C-94.77314835 64.28956802 -93.83145294 63.9580423 -92.86122131 63.61647034 C-89.88337379 62.56580474 -86.91046048 61.50190516 -83.9375 60.4375 C-81.90721359 59.71851784 -79.87661731 59.00041008 -77.84570312 58.28320312 C-72.89350784 56.53222892 -67.94528382 54.77039385 -63 53 C-66.10484041 52.01123069 -68.0752307 52.02544175 -71.21435547 52.84863281 Z M4.8125 56.4375 C4.09707031 56.72496094 3.38164062 57.01242188 2.64453125 57.30859375 C2.10183594 57.53675781 1.55914062 57.76492187 1 58 C4.40931897 59.13643966 5.00335456 58.86747764 8.1875 57.5625 C9.26064453 57.13130859 9.26064453 57.13130859 10.35546875 56.69140625 C10.89816406 56.46324219 11.44085938 56.23507813 12 56 C8.59068103 54.86356034 7.99664544 55.13252236 4.8125 56.4375 Z M-21.25 70.625 C-21.91962769 70.75872009 -22.58925537 70.89244019 -23.2791748 71.0302124 C-34.16589419 73.22182177 -44.6256324 76.01158222 -55 80 C-56.09054688 80.41765625 -57.18109375 80.8353125 -58.3046875 81.265625 C-60.55019513 82.14889947 -62.78114542 83.05224804 -65 84 C-61.71066067 85.09644644 -60.81628771 84.91591353 -57.56713867 84.07543945 C-56.67157761 83.84802567 -55.77601654 83.62061188 -54.85331726 83.38630676 C-53.88465225 83.13120834 -52.91598724 82.87610992 -51.91796875 82.61328125 C-50.91220291 82.35500046 -49.90643707 82.09671967 -48.87019348 81.83061218 C-45.64057984 80.99895744 -42.41412633 80.15566151 -39.1875 79.3125 C-37.05552327 78.76295471 -34.92336361 78.21411858 -32.79101562 77.66601562 C-22.15140116 74.92137706 -11.53887995 72.11130161 -1 69 C-1 68.67 -1 68.34 -1 68 C-7.94531175 67.81557647 -14.47346745 69.25891349 -21.25 70.625 Z M50 70 C53.465 69.505 53.465 69.505 57 69 C53.51418144 67.7979936 53.32007656 67.78661563 50 70 Z M40.75 71.4375 C39.41195312 71.86869141 39.41195312 71.86869141 38.046875 72.30859375 C37.03367188 72.65083984 37.03367188 72.65083984 36 73 C39.54667178 74.25127906 41.72253438 73.72285053 45.25 72.5625 C46.58804688 72.13130859 46.58804688 72.13130859 47.953125 71.69140625 C48.62859375 71.46324219 49.3040625 71.23507813 50 71 C46.45332822 69.74872094 44.27746562 70.27714947 40.75 71.4375 Z M-23.5 84.3125 C-25.40214305 85.06105706 -27.30448573 85.80910708 -29.20703125 86.55664062 C-33.80700282 88.36527418 -38.40424265 90.18068621 -43 92 C-38.52404971 93.3877912 -35.09861555 92.16747786 -30.75 90.8125 C-29.90824219 90.5556543 -29.06648438 90.29880859 -28.19921875 90.03417969 C-19.35514836 87.25097188 -10.67746829 84.00813501 -2 80.75 C-1.28678589 80.48224762 -0.57357178 80.21449524 0.16125488 79.93862915 C8.73355363 76.82145913 8.73355363 76.82145913 17 73 C17 72.34 17 71.68 17 71 C3.82842786 71 -11.42356573 79.52972221 -23.5 84.3125 Z M29 76 C32.465 75.505 32.465 75.505 36 75 C32.51418144 73.7979936 32.32007656 73.78661563 29 76 Z M58.93359375 81.58203125 C58.25829117 81.75627121 57.58298859 81.93051117 56.88722229 82.11003113 C55.46309583 82.47969423 54.04017057 82.85401216 52.6184082 83.23266602 C50.44443601 83.81065594 48.26671225 84.37224336 46.08789062 84.93164062 C38.71658538 86.674333 38.71658538 86.674333 32 90 C40.06968593 89.34485797 47.72333257 87.06612985 55.5 84.9375 C56.90872065 84.55614707 58.31757385 84.17528343 59.7265625 83.79492188 C63.15258949 82.86892205 66.57677103 81.93629766 70 81 C66.02579054 79.47270315 62.95491478 80.53519565 58.93359375 81.58203125 Z M139.6875 86.0625 C139.03971588 86.21695587 138.39193176 86.37141174 137.72451782 86.5305481 C125.9148118 89.36494329 114.4291253 92.89051123 103 97 C103 97.33 103 97.66 103 98 C111.47031245 97.45744975 119.73601497 96.10311755 128.06225586 94.52587891 C130.19290878 94.12397976 132.32572156 93.73543331 134.45898438 93.34765625 C144.49118399 91.53686749 144.49118399 91.53686749 154 88 C155.13440778 85.42919865 155.13440778 85.42919865 155 83 C149.8876508 83 144.63392089 84.88173345 139.6875 86.0625 Z M-51 87 C-47 88 -47 88 -47 88 Z M-63.046875 90.08984375 C-63.81807678 90.31321915 -64.58927856 90.53659454 -65.3838501 90.76673889 C-67.84204965 91.48105914 -70.29594989 92.20906645 -72.75 92.9375 C-74.41770373 93.42473617 -76.08566988 93.91107507 -77.75390625 94.39648438 C-81.83905353 95.58727293 -85.92039959 96.79035104 -90 98 C-85.60495235 99.36575504 -82.23725811 98.19779975 -77.953125 96.91015625 C-77.18192322 96.68678085 -76.41072144 96.46340546 -75.6161499 96.23326111 C-73.15795035 95.51894086 -70.70405011 94.79093355 -68.25 94.0625 C-66.58229627 93.57526383 -64.91433012 93.08892493 -63.24609375 92.60351562 C-59.16094647 91.41272707 -55.07960041 90.20964896 -51 89 C-55.39504765 87.63424496 -58.76274189 88.80220025 -63.046875 90.08984375 Z M-94 99 C-90 100 -90 100 -90 100 Z M136.4375 104.375 C135.12362305 104.85066406 135.12362305 104.85066406 133.78320312 105.3359375 C132.94595703 105.6453125 132.10871094 105.9546875 131.24609375 106.2734375 C130.09645142 106.69761963 130.09645142 106.69761963 128.92358398 107.13037109 C126.81923911 107.9454065 126.81923911 107.9454065 125 110 C136.38247841 108.8615786 136.38247841 108.8615786 147 105 C148.25996508 102.98201129 148.25996508 102.98201129 149 101 C144.46764756 101 140.65149731 102.80526264 136.4375 104.375 Z M113.14453125 103.28515625 C112.16827789 103.48957336 112.16827789 103.48957336 111.17230225 103.69812012 C109.05070698 104.14547883 106.93150571 104.60304152 104.8125 105.0625 C103.71927933 105.29717484 103.71927933 105.29717484 102.60397339 105.53659058 C82.0902943 109.94888439 61.78181783 114.94060619 42 122 C45.69202918 123.23067639 48.59449613 122.69443127 52.3515625 122.14453125 C53.45000992 121.99016853 53.45000992 121.99016853 54.57064819 121.83268738 C56.12962655 121.61157627 57.68810152 121.38689137 59.24609375 121.15893555 C61.56632266 120.82104507 63.88828813 120.49850249 66.2109375 120.17773438 C81.86692693 117.96249583 96.64938972 114.52853734 111.4375 108.875 C112.63181641 108.43285156 113.82613281 107.99070312 115.05664062 107.53515625 C121.00611199 105.54775537 121.00611199 105.54775537 126 102 C121.51357664 101.85986582 117.53227459 102.35976418 113.14453125 103.28515625 Z M-83.125 110.8125 C-84.34316406 111.07353516 -85.56132813 111.33457031 -86.81640625 111.60351562 C-87.97269531 111.86455078 -89.12898438 112.12558594 -90.3203125 112.39453125 C-91.91770264 112.74801636 -91.91770264 112.74801636 -93.54736328 113.10864258 C-94.3567334 113.40279053 -95.16610352 113.69693848 -96 114 C-96.33 114.99 -96.66 115.98 -97 117 C-95.04324516 119.76155998 -95.04324516 119.76155998 -92 122 C-88.92283186 121.78955628 -86.74870334 121.39038669 -83.85546875 120.51953125 C-83.08568192 120.31269211 -82.31589508 120.10585297 -81.52278137 119.89274597 C-79.06918565 119.2266732 -76.62931245 118.52042142 -74.1875 117.8125 C-72.52483021 117.35342514 -70.861423 116.89701211 -69.19726562 116.44335938 C-65.12231491 115.32626372 -61.05919261 114.17300704 -57 113 C-57 112.67 -57 112.34 -57 112 C-59.97 112 -62.94 112 -66 112 C-66.33 110.68 -66.66 109.36 -67 108 C-72.47891082 108 -77.79928159 109.61293723 -83.125 110.8125 Z M-57 111 C-53 112 -53 112 -53 112 Z M21.68359375 112.58984375 C20.96284164 112.76937592 20.24208954 112.94890808 19.49949646 113.13388062 C17.14274474 113.72474203 14.79008684 114.33028397 12.4375 114.9375 C10.81073309 115.35124784 9.18394255 115.76490274 7.55712891 116.1784668 C-2.38540402 118.72382771 -12.2798714 121.4125094 -22.125 124.3125 C-23.7193689 124.78127563 -23.7193689 124.78127563 -25.34594727 125.25952148 C-31.71227825 127.18032221 -37.87154881 129.41928807 -44 132 C-38.52912345 133.84825813 -33.04809531 131.87636727 -27.5625 130.75 C-26.43005859 130.53214844 -25.29761719 130.31429687 -24.13085938 130.08984375 C-23.03708984 129.86941406 -21.94332031 129.64898437 -20.81640625 129.421875 C-19.82068604 129.22174805 -18.82496582 129.02162109 -17.79907227 128.81542969 C-14.79404075 127.93999966 -12.53874635 126.82536762 -10 125 C-10 124.34 -10 123.68 -10 123 C-8.906875 122.79246094 -7.81375 122.58492187 -6.6875 122.37109375 C6.78993808 119.71785701 19.86576751 115.99979451 33 112 C29.0417967 110.46219511 25.62624351 111.5674648 21.68359375 112.58984375 Z M129.0234375 117.27734375 C127.64671875 117.67663086 127.64671875 117.67663086 126.2421875 118.08398438 C125.29601562 118.36564453 124.34984375 118.64730469 123.375 118.9375 C122.42109375 119.21529297 121.4671875 119.49308594 120.484375 119.77929688 C116.97122027 120.80602871 113.47251987 121.84249338 110 123 C110.33 124.65 110.66 126.3 111 128 C117.00385846 127.47024778 121.79303186 125.62089198 127.25 123.125 C128.45269531 122.59712891 128.45269531 122.59712891 129.6796875 122.05859375 C133.3846175 120.39199481 136.23258295 119.04070218 139 116 C135.40302547 115.86881434 132.47193264 116.2649018 129.0234375 117.27734375 Z M-84 131 C-84 131.66 -84 132.32 -84 133 C-82.41439607 132.74279326 -80.83154076 132.46861201 -79.25 132.1875 C-78.36828125 132.03667969 -77.4865625 131.88585937 -76.578125 131.73046875 C-73.8089089 130.94585752 -72.1740599 129.85404641 -70 128 C-75.06232884 127.51009721 -79.32630846 129.2893678 -84 131 Z M80.125 131.5 C78.66320312 131.85771484 78.66320312 131.85771484 77.171875 132.22265625 C74.77966866 132.80898133 72.38920521 133.40158463 70 134 C70 134.33 70 134.66 70 135 C79.27394893 134.41117785 88.0146265 132.24113144 97 130 C97 129.67 97 129.34 97 129 C91.10182528 128.60281652 85.79437536 130.07881512 80.125 131.5 Z M110.6875 135.6875 C109.17639648 136.05391602 109.17639648 136.05391602 107.63476562 136.42773438 C101.46427631 138.01558016 95.99315677 139.92487137 91 144 C90.67 144.66 90.34 145.32 90 146 C101.07922616 146.59352997 113.18209423 145.3157459 122.30078125 138.59765625 C124.13113682 136.87670124 125.5586622 135.05335201 127 133 C121.27438998 132.81277082 116.19533977 134.26263822 110.6875 135.6875 Z M39 151 C43 152 43 152 43 152 Z M27.6875 153.5 C26.61886719 153.7784375 25.55023438 154.056875 24.44921875 154.34375 C23.64097656 154.5603125 22.83273438 154.776875 22 155 C22 155.33 22 155.66 22 156 C27.852795 155.48517081 33.3297637 154.54642808 39 153 C39 152.67 39 152.34 39 152 C34.97198417 151.82064494 31.57788857 152.47396345 27.6875 153.5 Z M80.41796875 153.20703125 C79.56783203 153.46419922 78.71769531 153.72136719 77.84179688 153.98632812 C76.96587891 154.25896484 76.08996094 154.53160156 75.1875 154.8125 C73.89102539 155.20405273 73.89102539 155.20405273 72.56835938 155.60351562 C67.2971717 157.21470884 62.14064095 159.01180786 57 161 C60.58798527 162.26606811 62.86523464 161.71644928 66.46484375 160.63671875 C67.51220703 160.32669922 68.55957031 160.01667969 69.63867188 159.69726562 C70.72728516 159.36404297 71.81589844 159.03082031 72.9375 158.6875 C74.02224609 158.36587891 75.10699219 158.04425781 76.22460938 157.71289062 C80.9047623 156.31200896 85.48295253 154.8694945 90 153 C90 152.67 90 152.34 90 152 C86.53863954 151.88203812 83.72633465 152.19696889 80.41796875 153.20703125 Z M97.8125 154.9375 C96.91144531 155.31777344 96.01039063 155.69804687 95.08203125 156.08984375 C94.39496094 156.39019531 93.70789063 156.69054687 93 157 C96.70781672 158.23593891 97.67510253 157.5678132 101.1875 156.0625 C102.08855469 155.68222656 102.98960937 155.30195313 103.91796875 154.91015625 C104.60503906 154.60980469 105.29210937 154.30945313 106 154 C102.29218328 152.76406109 101.32489747 153.4321868 97.8125 154.9375 Z M18 156 C22 157 22 157 22 157 Z M14 157 C18 158 18 158 18 158 Z M31.85473633 161.34521484 C31.1549617 161.48830582 30.45518707 161.63139679 29.73420715 161.77882385 C27.4323875 162.25105143 25.13217769 162.7306311 22.83203125 163.2109375 C21.22975582 163.54266699 19.62743477 163.87417626 18.02507019 164.20547485 C14.67297746 164.89985308 11.32171625 165.59809118 7.97094727 166.29882812 C3.67176652 167.19740022 -0.62969645 168.08447263 -4.93189526 168.96846581 C-8.23832441 169.64948955 -11.54327419 170.33748183 -14.84783363 171.02751541 C-16.43380929 171.35762066 -18.0202868 171.68532408 -19.60725975 172.01060104 C-21.82072574 172.46518576 -24.03197635 172.92932024 -26.24291992 173.39599609 C-27.50246994 173.65802826 -28.76201996 173.92006042 -30.05973816 174.19003296 C-33.09505504 174.76577586 -33.09505504 174.76577586 -35 177 C-32.34384007 179.18184565 -30.40798023 180.48880297 -27 181 C-21.60366851 180.4197493 -16.29643134 179.16755954 -11 178 C-9.99243652 177.77812012 -8.98487305 177.55624023 -7.94677734 177.32763672 C10.01523828 173.28584884 26.91020095 167.77889893 44 161 C44 160.67 44 160.34 44 160 C39.77340642 159.826945 35.99080061 160.49160583 31.85473633 161.34521484 Z M-28.73828125 162.875 C-29.80498047 163.05546875 -30.87167969 163.2359375 -31.97070312 163.421875 C-33.07349609 163.61265625 -34.17628906 163.8034375 -35.3125 164 C-36.43462891 164.19078125 -37.55675781 164.3815625 -38.71289062 164.578125 C-41.4759069 165.04842564 -44.23821931 165.52250625 -47 166 C-46.67 166.99 -46.34 167.98 -46 169 C-41.72167209 171.13916396 -36.35953206 169.74273178 -31.96484375 168.359375 C-27.25639849 166.70847112 -22.62283959 164.87551929 -18 163 C-18 162.67 -18 162.34 -18 162 C-21.69280216 161.90569061 -25.09960032 162.25233802 -28.73828125 162.875 Z M65 181 C65 181.33 65 181.66 65 182 C66.65 182 68.3 182 70 182 C70 181.67 70 181.34 70 181 C68.35 181 66.7 181 65 181 Z M-8 195 C-8 195.99 -8 196.98 -8 198 C-3.5731118 200.9512588 0.50348847 200.42293228 5.56665039 199.56518555 C8.4841374 198.95472958 11.38194198 198.28537374 14.28125 197.59375 C15.33534058 197.34959351 16.38943115 197.10543701 17.47546387 196.85388184 C20.81895124 196.07746038 24.15944439 195.28892949 27.5 194.5 C29.77585429 193.96924798 32.05189428 193.43929154 34.328125 192.91015625 C39.88759903 191.6159714 45.44466964 190.31185098 51 189 C51 188.67 51 188.34 51 188 C31.14456043 186.99182535 11.33266447 190.72544102 -8 195 Z M33.8125 203.4375 C31.90404297 203.86869141 31.90404297 203.86869141 29.95703125 204.30859375 C28.49330078 204.65083984 28.49330078 204.65083984 27 205 C27 205.33 27 205.66 27 206 C28.89510699 206.08160748 30.79124504 206.13946459 32.6875 206.1875 C34.27111328 206.23970703 34.27111328 206.23970703 35.88671875 206.29296875 C39.35422768 205.96666615 41.18432448 204.99030125 44 203 C40.09366863 201.69788954 37.80461827 202.52187654 33.8125 203.4375 Z " fill="#9B62F9" transform="translate(160,83)"/>
</svg>
